<svg width="208" height="25" viewBox="0 0 208 25" fill="none" xmlns="http://www.w3.org/2000/svg">
<circle cx="6.384" cy="11.7039" r="6.384" fill="#803CEF" fill-opacity="0.3"/>
<circle cx="39.9" cy="12.236" r="9.044" fill="#803CEF" fill-opacity="0.6"/>
<circle cx="78.204" cy="12.236" r="12.236" fill="#803CEF"/>
<rect x="106.848" width="101" height="22" rx="4" fill="#ADFFE2"/>
<path d="M119.218 10.51C119.218 9.83 119.375 9.22 119.688 8.68C120.008 8.14 120.438 7.72 120.978 7.42C121.525 7.11333 122.121 6.96 122.768 6.96C123.508 6.96 124.165 7.14333 124.738 7.51C125.318 7.87 125.738 8.38333 125.998 9.05H124.628C124.448 8.68333 124.198 8.41 123.878 8.23C123.558 8.05 123.188 7.96 122.768 7.96C122.308 7.96 121.898 8.06333 121.538 8.27C121.178 8.47667 120.895 8.77333 120.688 9.16C120.488 9.54667 120.388 9.99667 120.388 10.51C120.388 11.0233 120.488 11.4733 120.688 11.86C120.895 12.2467 121.178 12.5467 121.538 12.76C121.898 12.9667 122.308 13.07 122.768 13.07C123.188 13.07 123.558 12.98 123.878 12.8C124.198 12.62 124.448 12.3467 124.628 11.98H125.998C125.738 12.6467 125.318 13.16 124.738 13.52C124.165 13.88 123.508 14.06 122.768 14.06C122.115 14.06 121.518 13.91 120.978 13.61C120.438 13.3033 120.008 12.88 119.688 12.34C119.375 11.8 119.218 11.19 119.218 10.51ZM129.722 14.09C129.202 14.09 128.732 13.9733 128.312 13.74C127.892 13.5 127.562 13.1667 127.322 12.74C127.082 12.3067 126.962 11.8067 126.962 11.24C126.962 10.68 127.086 10.1833 127.332 9.75C127.579 9.31667 127.916 8.98333 128.342 8.75C128.769 8.51667 129.246 8.4 129.772 8.4C130.299 8.4 130.776 8.51667 131.202 8.75C131.629 8.98333 131.966 9.31667 132.212 9.75C132.459 10.1833 132.582 10.68 132.582 11.24C132.582 11.8 132.456 12.2967 132.202 12.73C131.949 13.1633 131.602 13.5 131.162 13.74C130.729 13.9733 130.249 14.09 129.722 14.09ZM129.722 13.1C130.016 13.1 130.289 13.03 130.542 12.89C130.802 12.75 131.012 12.54 131.172 12.26C131.332 11.98 131.412 11.64 131.412 11.24C131.412 10.84 131.336 10.5033 131.182 10.23C131.029 9.95 130.826 9.74 130.572 9.6C130.319 9.46 130.046 9.39 129.752 9.39C129.459 9.39 129.186 9.46 128.932 9.6C128.686 9.74 128.489 9.95 128.342 10.23C128.196 10.5033 128.122 10.84 128.122 11.24C128.122 11.8333 128.272 12.2933 128.572 12.62C128.879 12.94 129.262 13.1 129.722 13.1ZM140.379 8.4C140.813 8.4 141.199 8.49 141.539 8.67C141.886 8.85 142.156 9.11667 142.349 9.47C142.549 9.82333 142.649 10.25 142.649 10.75V14H141.519V10.92C141.519 10.4267 141.396 10.05 141.149 9.79C140.903 9.52333 140.566 9.39 140.139 9.39C139.713 9.39 139.373 9.52333 139.119 9.79C138.873 10.05 138.749 10.4267 138.749 10.92V14H137.619V10.92C137.619 10.4267 137.496 10.05 137.249 9.79C137.003 9.52333 136.666 9.39 136.239 9.39C135.813 9.39 135.473 9.52333 135.219 9.79C134.973 10.05 134.849 10.4267 134.849 10.92V14H133.709V8.49H134.849V9.12C135.036 8.89333 135.273 8.71667 135.559 8.59C135.846 8.46333 136.153 8.4 136.479 8.4C136.919 8.4 137.313 8.49333 137.659 8.68C138.006 8.86667 138.273 9.13667 138.459 9.49C138.626 9.15667 138.886 8.89333 139.239 8.7C139.593 8.5 139.973 8.4 140.379 8.4ZM144.68 7.76C144.473 7.76 144.3 7.69 144.16 7.55C144.02 7.41 143.95 7.23667 143.95 7.03C143.95 6.82333 144.02 6.65 144.16 6.51C144.3 6.37 144.473 6.3 144.68 6.3C144.88 6.3 145.05 6.37 145.19 6.51C145.33 6.65 145.4 6.82333 145.4 7.03C145.4 7.23667 145.33 7.41 145.19 7.55C145.05 7.69 144.88 7.76 144.68 7.76ZM145.24 8.49V14H144.1V8.49H145.24ZM149.517 8.4C149.95 8.4 150.337 8.49 150.677 8.67C151.023 8.85 151.293 9.11667 151.487 9.47C151.68 9.82333 151.777 10.25 151.777 10.75V14H150.647V10.92C150.647 10.4267 150.523 10.05 150.277 9.79C150.03 9.52333 149.693 9.39 149.267 9.39C148.84 9.39 148.5 9.52333 148.247 9.79C148 10.05 147.877 10.4267 147.877 10.92V14H146.737V8.49H147.877V9.12C148.063 8.89333 148.3 8.71667 148.587 8.59C148.88 8.46333 149.19 8.4 149.517 8.4ZM155.451 8.4C155.878 8.4 156.254 8.48667 156.581 8.66C156.914 8.82667 157.174 9.03667 157.361 9.29V8.49H158.511V14.09C158.511 14.5967 158.404 15.0467 158.191 15.44C157.978 15.84 157.668 16.1533 157.261 16.38C156.861 16.6067 156.381 16.72 155.821 16.72C155.074 16.72 154.454 16.5433 153.961 16.19C153.468 15.8433 153.188 15.37 153.121 14.77H154.251C154.338 15.0567 154.521 15.2867 154.801 15.46C155.088 15.64 155.428 15.73 155.821 15.73C156.281 15.73 156.651 15.59 156.931 15.31C157.218 15.03 157.361 14.6233 157.361 14.09V13.17C157.168 13.43 156.904 13.65 156.571 13.83C156.244 14.0033 155.871 14.09 155.451 14.09C154.971 14.09 154.531 13.97 154.131 13.73C153.738 13.4833 153.424 13.1433 153.191 12.71C152.964 12.27 152.851 11.7733 152.851 11.22C152.851 10.6667 152.964 10.1767 153.191 9.75C153.424 9.32333 153.738 8.99333 154.131 8.76C154.531 8.52 154.971 8.4 155.451 8.4ZM157.361 11.24C157.361 10.86 157.281 10.53 157.121 10.25C156.968 9.97 156.764 9.75667 156.511 9.61C156.258 9.46333 155.984 9.39 155.691 9.39C155.398 9.39 155.124 9.46333 154.871 9.61C154.618 9.75 154.411 9.96 154.251 10.24C154.098 10.5133 154.021 10.84 154.021 11.22C154.021 11.6 154.098 11.9333 154.251 12.22C154.411 12.5067 154.618 12.7267 154.871 12.88C155.131 13.0267 155.404 13.1 155.691 13.1C155.984 13.1 156.258 13.0267 156.511 12.88C156.764 12.7333 156.968 12.52 157.121 12.24C157.281 11.9533 157.361 11.62 157.361 11.24ZM164.606 14.09C164.173 14.09 163.783 14.0133 163.436 13.86C163.096 13.7 162.826 13.4867 162.626 13.22C162.426 12.9467 162.319 12.6433 162.306 12.31H163.486C163.506 12.5433 163.616 12.74 163.816 12.9C164.023 13.0533 164.279 13.13 164.586 13.13C164.906 13.13 165.153 13.07 165.326 12.95C165.506 12.8233 165.596 12.6633 165.596 12.47C165.596 12.2633 165.496 12.11 165.296 12.01C165.103 11.91 164.793 11.8 164.366 11.68C163.953 11.5667 163.616 11.4567 163.356 11.35C163.096 11.2433 162.869 11.08 162.676 10.86C162.489 10.64 162.396 10.35 162.396 9.99C162.396 9.69667 162.483 9.43 162.656 9.19C162.829 8.94333 163.076 8.75 163.396 8.61C163.723 8.47 164.096 8.4 164.516 8.4C165.143 8.4 165.646 8.56 166.026 8.88C166.413 9.19333 166.619 9.62333 166.646 10.17H165.506C165.486 9.92333 165.386 9.72667 165.206 9.58C165.026 9.43333 164.783 9.36 164.476 9.36C164.176 9.36 163.946 9.41667 163.786 9.53C163.626 9.64333 163.546 9.79333 163.546 9.98C163.546 10.1267 163.599 10.25 163.706 10.35C163.813 10.45 163.943 10.53 164.096 10.59C164.249 10.6433 164.476 10.7133 164.776 10.8C165.176 10.9067 165.503 11.0167 165.756 11.13C166.016 11.2367 166.239 11.3967 166.426 11.61C166.613 11.8233 166.709 12.1067 166.716 12.46C166.716 12.7733 166.629 13.0533 166.456 13.3C166.283 13.5467 166.036 13.74 165.716 13.88C165.403 14.02 165.033 14.09 164.606 14.09ZM170.338 14.09C169.818 14.09 169.348 13.9733 168.928 13.74C168.508 13.5 168.178 13.1667 167.938 12.74C167.698 12.3067 167.578 11.8067 167.578 11.24C167.578 10.68 167.701 10.1833 167.948 9.75C168.194 9.31667 168.531 8.98333 168.958 8.75C169.384 8.51667 169.861 8.4 170.388 8.4C170.914 8.4 171.391 8.51667 171.818 8.75C172.244 8.98333 172.581 9.31667 172.828 9.75C173.074 10.1833 173.198 10.68 173.198 11.24C173.198 11.8 173.071 12.2967 172.818 12.73C172.564 13.1633 172.218 13.5 171.778 13.74C171.344 13.9733 170.864 14.09 170.338 14.09ZM170.338 13.1C170.631 13.1 170.904 13.03 171.158 12.89C171.418 12.75 171.628 12.54 171.788 12.26C171.948 11.98 172.028 11.64 172.028 11.24C172.028 10.84 171.951 10.5033 171.798 10.23C171.644 9.95 171.441 9.74 171.188 9.6C170.934 9.46 170.661 9.39 170.368 9.39C170.074 9.39 169.801 9.46 169.548 9.6C169.301 9.74 169.104 9.95 168.958 10.23C168.811 10.5033 168.738 10.84 168.738 11.24C168.738 11.8333 168.888 12.2933 169.188 12.62C169.494 12.94 169.878 13.1 170.338 13.1ZM176.715 14.09C176.195 14.09 175.725 13.9733 175.305 13.74C174.885 13.5 174.555 13.1667 174.315 12.74C174.075 12.3067 173.955 11.8067 173.955 11.24C173.955 10.68 174.078 10.1833 174.325 9.75C174.571 9.31667 174.908 8.98333 175.335 8.75C175.761 8.51667 176.238 8.4 176.765 8.4C177.291 8.4 177.768 8.51667 178.195 8.75C178.621 8.98333 178.958 9.31667 179.205 9.75C179.451 10.1833 179.575 10.68 179.575 11.24C179.575 11.8 179.448 12.2967 179.195 12.73C178.941 13.1633 178.595 13.5 178.155 13.74C177.721 13.9733 177.241 14.09 176.715 14.09ZM176.715 13.1C177.008 13.1 177.281 13.03 177.535 12.89C177.795 12.75 178.005 12.54 178.165 12.26C178.325 11.98 178.405 11.64 178.405 11.24C178.405 10.84 178.328 10.5033 178.175 10.23C178.021 9.95 177.818 9.74 177.565 9.6C177.311 9.46 177.038 9.39 176.745 9.39C176.451 9.39 176.178 9.46 175.925 9.6C175.678 9.74 175.481 9.95 175.335 10.23C175.188 10.5033 175.115 10.84 175.115 11.24C175.115 11.8333 175.265 12.2933 175.565 12.62C175.871 12.94 176.255 13.1 176.715 13.1ZM183.482 8.4C183.915 8.4 184.302 8.49 184.642 8.67C184.988 8.85 185.258 9.11667 185.452 9.47C185.645 9.82333 185.742 10.25 185.742 10.75V14H184.612V10.92C184.612 10.4267 184.488 10.05 184.242 9.79C183.995 9.52333 183.658 9.39 183.232 9.39C182.805 9.39 182.465 9.52333 182.212 9.79C181.965 10.05 181.842 10.4267 181.842 10.92V14H180.702V8.49H181.842V9.12C182.028 8.89333 182.265 8.71667 182.552 8.59C182.845 8.46333 183.155 8.4 183.482 8.4ZM188.626 7.05L188.496 11.9H187.546L187.416 7.05H188.626ZM188.056 14.07C187.849 14.07 187.676 14 187.536 13.86C187.396 13.72 187.326 13.5467 187.326 13.34C187.326 13.1333 187.396 12.96 187.536 12.82C187.676 12.68 187.849 12.61 188.056 12.61C188.256 12.61 188.426 12.68 188.566 12.82C188.706 12.96 188.776 13.1333 188.776 13.34C188.776 13.5467 188.706 13.72 188.566 13.86C188.426 14 188.256 14.07 188.056 14.07Z" fill="black"/>
</svg>
