<svg width="102" height="24" viewBox="0 0 102 24" fill="none" xmlns="http://www.w3.org/2000/svg">
<path d="M22.88 19.2C22.0267 19.2 21.2667 19.0333 20.6 18.7C19.9467 18.3667 19.4333 17.8533 19.06 17.16C18.6867 16.4533 18.5 15.5467 18.5 14.44C18.5 14.24 18.5067 14.02 18.52 13.78C18.5467 13.54 18.58 13.22 18.62 12.82C18.6733 12.4067 18.7467 11.8667 18.84 11.2C18.9867 10.12 19.24 9.2 19.6 8.44C19.9733 7.66667 20.4333 7.03333 20.98 6.54C21.5267 6.03333 22.1467 5.66667 22.84 5.44C23.5333 5.2 24.2667 5.08 25.04 5.08H25.52C26.3467 5.08 27.0867 5.23333 27.74 5.54C28.3933 5.84667 28.9067 6.30667 29.28 6.92C29.6667 7.52 29.86 8.27333 29.86 9.18C29.86 9.34 29.8533 9.5 29.84 9.66C29.84 9.80667 29.8267 9.96 29.8 10.12H27.08C27.12 9.89333 27.14 9.64667 27.14 9.38C27.14 8.9 27.0533 8.50667 26.88 8.2C26.7067 7.89333 26.4533 7.66667 26.12 7.52C25.8 7.37333 25.4 7.3 24.92 7.3C24.4267 7.3 23.9733 7.39333 23.56 7.58C23.1467 7.76667 22.8 8.1 22.52 8.58C22.24 9.04667 22.0333 9.72667 21.9 10.62C21.7933 11.3267 21.7067 11.9133 21.64 12.38C21.5867 12.8467 21.54 13.2267 21.5 13.52C21.4733 13.8 21.4533 14.0267 21.44 14.2C21.4267 14.3733 21.42 14.52 21.42 14.64C21.42 15.2267 21.5067 15.6933 21.68 16.04C21.8667 16.3733 22.1267 16.6133 22.46 16.76C22.8067 16.9067 23.2133 16.98 23.68 16.98C24 16.98 24.3133 16.94 24.62 16.86C24.9267 16.7667 25.2133 16.62 25.48 16.42C25.7467 16.2067 25.9667 15.9267 26.14 15.58C26.3267 15.22 26.46 14.7667 26.54 14.22L26.64 13.58H23.8L24.08 11.6H29.58L28.9 16.32C28.82 16.8933 28.76 17.3867 28.72 17.8C28.6933 18.2133 28.68 18.6133 28.68 19H27.06L26.82 17.38C26.42 17.9667 25.88 18.42 25.2 18.74C24.52 19.0467 23.84 19.2 23.16 19.2H22.88ZM34.2922 19L35.4522 10.82H32.0922L32.3722 8.78H38.4522L37.0122 19H34.2922ZM30.9122 19L31.2122 17H40.6322L40.3322 19H30.9122ZM35.8122 6.8L36.1122 4.58H38.9522L38.6522 6.8H35.8122ZM42.5044 22.72C42.2377 22.72 41.9644 22.6867 41.6844 22.62C41.391 22.5533 41.131 22.4533 40.9044 22.32L41.1244 20.64C41.2577 20.7067 41.4044 20.76 41.5644 20.8C41.711 20.8533 41.8644 20.88 42.0244 20.88C42.2244 20.88 42.4177 20.82 42.6044 20.7C42.791 20.58 42.911 20.3133 42.9644 19.9L44.2444 10.82H42.5044L42.8044 8.78H44.5444L44.7644 7.12C44.8577 6.48 45.051 5.96667 45.3444 5.58C45.651 5.19333 46.0177 4.90667 46.4444 4.72C46.8844 4.53333 47.3577 4.44 47.8644 4.44C48.211 4.44 48.5377 4.47333 48.8444 4.54C49.151 4.60667 49.4044 4.70667 49.6044 4.84L49.3844 6.46C49.2377 6.39333 49.071 6.34 48.8844 6.3C48.711 6.26 48.551 6.24 48.4044 6.24C48.1644 6.24 47.9444 6.31333 47.7444 6.46C47.5577 6.60667 47.431 6.90667 47.3644 7.36L47.1644 8.78H52.7044L51.2644 19H48.6444L49.8044 10.82H46.8644L45.5844 19.92C45.451 20.8533 45.1244 21.5533 44.6044 22.02C44.0844 22.4867 43.3844 22.72 42.5044 22.72ZM50.0844 6.88L50.4444 4.26H53.4444L53.0844 6.88H50.0844Z" fill="#4A0EAD"/>
<path d="M59.6966 19.2C58.8966 19.2 58.1832 19.06 57.5566 18.78C56.9432 18.4867 56.4566 18.0667 56.0966 17.52C55.7499 16.9733 55.5766 16.3067 55.5766 15.52V14.56H58.2566V15.4C58.2566 15.96 58.4099 16.38 58.7166 16.66C59.0366 16.9267 59.4299 17.06 59.8966 17.06C60.3499 17.06 60.7366 16.92 61.0566 16.64C61.3766 16.36 61.5366 15.9467 61.5366 15.4V5.28H64.3766V15.52C64.3766 16.32 64.1899 16.9933 63.8166 17.54C63.4432 18.0867 62.9366 18.5 62.2966 18.78C61.6566 19.06 60.9232 19.2 60.0966 19.2H59.6966ZM71.9688 19.2C70.9288 19.2 70.0288 18.98 69.2688 18.54C68.5221 18.1 67.9488 17.4933 67.5488 16.72C67.1488 15.9333 66.9488 15.0467 66.9488 14.06V13.7C66.9488 12.6867 67.1488 11.8 67.5488 11.04C67.9488 10.2667 68.5221 9.66667 69.2688 9.24C70.0288 8.8 70.9221 8.58 71.9488 8.58C73.0021 8.58 73.9021 8.8 74.6488 9.24C75.4088 9.68 75.9888 10.2867 76.3888 11.06C76.8021 11.82 77.0088 12.7 77.0088 13.7V14.06C77.0088 15.0867 76.8021 15.9867 76.3888 16.76C75.9888 17.52 75.4088 18.12 74.6488 18.56C73.9021 18.9867 73.0088 19.2 71.9688 19.2ZM71.9688 17.4C72.5954 17.4 73.1088 17.1733 73.5088 16.72C73.9088 16.2667 74.1088 15.6467 74.1088 14.86V12.9C74.1088 12.1267 73.9088 11.5133 73.5088 11.06C73.1088 10.5933 72.5954 10.36 71.9688 10.36C71.3554 10.36 70.8421 10.5933 70.4288 11.06C70.0288 11.5133 69.8288 12.1267 69.8288 12.9V14.86C69.8288 15.6467 70.0288 16.2667 70.4288 16.72C70.8421 17.1733 71.3554 17.4 71.9688 17.4ZM84.9209 19.2C84.2943 19.2 83.7209 19.0733 83.2009 18.82C82.6809 18.5667 82.2609 18.2 81.9409 17.72L81.7209 19H79.5009V4.6H82.2409V9.74C82.5209 9.39333 82.8876 9.11333 83.3409 8.9C83.8076 8.68667 84.3676 8.58 85.0209 8.58C85.9276 8.58 86.6809 8.79333 87.2809 9.22C87.8809 9.64667 88.3276 10.24 88.6209 11C88.9276 11.76 89.0809 12.6533 89.0809 13.68V13.94C89.0809 15.0067 88.9076 15.9333 88.5609 16.72C88.2276 17.5067 87.7476 18.12 87.1209 18.56C86.5076 18.9867 85.7743 19.2 84.9209 19.2ZM84.2809 17.38C84.8676 17.38 85.3543 17.1667 85.7409 16.74C86.1276 16.3133 86.3209 15.6533 86.3209 14.76V12.88C86.3209 12.0667 86.1276 11.4533 85.7409 11.04C85.3543 10.6133 84.8676 10.4 84.2809 10.4C83.6943 10.4 83.2076 10.6133 82.8209 11.04C82.4343 11.4533 82.2409 12.0667 82.2409 12.88V14.76C82.2409 15.6533 82.4343 16.3133 82.8209 16.74C83.2076 17.1667 83.6943 17.38 84.2809 17.38ZM95.7331 19.2C94.8665 19.2 94.0931 19.0867 93.4131 18.86C92.7465 18.62 92.2198 18.2733 91.8331 17.82C91.4465 17.3667 91.2531 16.8133 91.2531 16.16C91.2531 16.1067 91.2531 16.0467 91.2531 15.98C91.2531 15.9133 91.2598 15.8333 91.2731 15.74H93.5731V15.9C93.5731 16.38 93.7731 16.7533 94.1731 17.02C94.5865 17.2733 95.1931 17.4 95.9931 17.4C96.7398 17.4 97.2865 17.2867 97.6331 17.06C97.9931 16.8333 98.1731 16.54 98.1731 16.18C98.1731 15.9267 98.0931 15.72 97.9331 15.56C97.7865 15.4 97.4931 15.2667 97.0531 15.16C96.6265 15.04 95.9798 14.9133 95.1131 14.78C94.2465 14.6467 93.5398 14.46 92.9931 14.22C92.4598 13.98 92.0665 13.66 91.8131 13.26C91.5598 12.86 91.4331 12.3533 91.4331 11.74C91.4331 11.02 91.6265 10.4267 92.0131 9.96C92.4131 9.49333 92.9531 9.14667 93.6331 8.92C94.3265 8.69333 95.1198 8.58 96.0131 8.58C96.7998 8.58 97.5131 8.69333 98.1531 8.92C98.7931 9.13333 99.3065 9.44667 99.6931 9.86C100.08 10.26 100.273 10.7533 100.273 11.34C100.273 11.38 100.273 11.4333 100.273 11.5C100.273 11.5667 100.26 11.6467 100.233 11.74H97.9131C97.9131 11.38 97.8265 11.1 97.6531 10.9C97.4798 10.6867 97.2398 10.54 96.9331 10.46C96.6265 10.38 96.2665 10.34 95.8531 10.34C94.5465 10.34 93.8931 10.7133 93.8931 11.46C93.8931 11.6867 93.9665 11.8667 94.1131 12C94.2598 12.1333 94.5331 12.2533 94.9331 12.36C95.3331 12.4667 95.9265 12.5867 96.7131 12.72C97.6598 12.8667 98.4198 13.0667 98.9931 13.32C99.5798 13.56 99.9998 13.8867 100.253 14.3C100.52 14.7 100.653 15.2267 100.653 15.88C100.653 16.6667 100.453 17.3067 100.053 17.8C99.6531 18.28 99.0865 18.6333 98.3531 18.86C97.6198 19.0867 96.7465 19.2 95.7331 19.2Z" fill="#242424"/>
<path d="M0 6H14.5061C15.3312 6 16 6.66884 16 7.4939H1.4939C0.668843 7.4939 0 6.82506 0 6Z" fill="#4A0EAD"/>
<path d="M4 9.58533H14.5061C15.3312 9.58533 16 10.2542 16 11.0792H5.4939C4.66884 11.0792 4 10.4104 4 9.58533Z" fill="#4A0EAD"/>
<path d="M8 13.1708H14.5061C15.3312 13.1708 16 13.8396 16 14.6647H9.4939C8.66884 14.6647 8 13.9958 8 13.1708Z" fill="#4A0EAD"/>
<path d="M12 16.7561H14.5061C15.3312 16.7561 16 17.4249 16 18.25H13.4939C12.6688 18.25 12 17.5812 12 16.7561Z" fill="#4A0EAD"/>
</svg>
